<svg width="145" height="26" viewBox="0 0 145 26" fill="none" xmlns="http://www.w3.org/2000/svg">
<path d="M0.312 0.599998H3.832V19.8H9.624V23H0.312V0.599998ZM11.312 0.599998H20.912V3.8H14.832V9.72H19.664V12.92H14.832V19.8H20.912V23H11.312V0.599998ZM28.062 0.599998H33.086L35.326 16.632H35.39L37.63 0.599998H42.654V23H39.326V6.04H39.262L36.702 23H33.758L31.198 6.04H31.134V23H28.062V0.599998ZM45.2808 0.599998H48.8008V23H45.2808V0.599998ZM51.437 0.599998H55.853L59.277 14.008H59.341V0.599998H62.477V23H58.861L54.637 6.648H54.573V23H51.437V0.599998ZM65.0933 0.599998H68.6133V9.72H72.3893V0.599998H75.9093V23H72.3893V12.92H68.6133V23H65.0933V0.599998ZM94.0238 25.08C92.4238 25.08 91.4424 24.3653 91.0798 22.936C90.4184 23.192 89.6398 23.32 88.7438 23.32C87.0158 23.32 85.6931 22.8293 84.7758 21.848C83.8584 20.8667 83.3997 19.48 83.3997 17.688V5.912C83.3997 4.12 83.8584 2.73333 84.7758 1.752C85.6931 0.770665 87.0158 0.279999 88.7438 0.279999C90.4718 0.279999 91.7944 0.770665 92.7118 1.752C93.6291 2.73333 94.0878 4.12 94.0878 5.912V17.688C94.0878 19.1813 93.7571 20.408 93.0958 21.368C93.2238 21.5813 93.3838 21.72 93.5758 21.784C93.7678 21.848 94.0451 21.88 94.4078 21.88H94.9518V25.08H94.0238ZM88.7438 20.12C89.9598 20.12 90.5677 19.384 90.5677 17.912V5.688C90.5677 4.216 89.9598 3.48 88.7438 3.48C87.5278 3.48 86.9198 4.216 86.9198 5.688V17.912C86.9198 19.384 87.5278 20.12 88.7438 20.12ZM101.588 23.32C99.8816 23.32 98.5803 22.84 97.6843 21.88C96.7883 20.8987 96.3403 19.5013 96.3403 17.688V0.599998H99.8602V17.944C99.8602 18.712 100.01 19.2667 100.308 19.608C100.628 19.9493 101.076 20.12 101.652 20.12C102.228 20.12 102.666 19.9493 102.964 19.608C103.284 19.2667 103.444 18.712 103.444 17.944V0.599998H106.836V17.688C106.836 19.5013 106.388 20.8987 105.492 21.88C104.596 22.84 103.295 23.32 101.588 23.32ZM112.575 13.464L108.319 0.599998H112.063L114.463 8.824H114.527L116.927 0.599998H120.351L116.095 13.464V23H112.575V13.464ZM121.937 0.599998H131.537V3.8H125.457V9.72H130.289V12.92H125.457V19.8H131.537V23H121.937V0.599998ZM133.562 0.599998H137.978L141.402 14.008H141.466V0.599998H144.602V23H140.986L136.762 6.648H136.698V23H133.562V0.599998Z" fill="#FFFCE1"/>
<a href="https://www.baguettestudio.com/en">
<rect fill="black" fill-opacity="0" y="-0.199999" width="146.914" height="38.4"/>
</a>
</svg>
