<svg width="24" height="24" viewBox="0 0 24 24" fill="none" xmlns="http://www.w3.org/2000/svg">
<g clip-path="url(#clip0_490_9866)">
<path d="M0 12C0 18.627 5.373 24 12 24C18.627 24 24 18.627 24 12C24 5.373 18.627 0 12 0C5.373 0 0 5.373 0 12ZM13.172 18.047C12.731 18.488 12.019 18.488 11.583 18.047C11.147 17.606 11.142 16.894 11.583 16.458L14.911 13.13L6.375 13.125C5.752 13.125 5.25 12.623 5.25 12C5.25 11.377 5.752 10.875 6.375 10.875H14.911L11.583 7.547C11.142 7.106 11.142 6.394 11.583 5.958C12.023 5.522 12.736 5.517 13.172 5.958L18.422 11.203C18.862 11.644 18.862 12.356 18.422 12.792L13.172 18.047Z" fill="#6381AD"/>
</g>
<defs>
<clipPath id="clip0_490_9866">
<rect width="24" height="24" fill="white"/>
</clipPath>
</defs>
</svg>
