<svg width="32" height="32" viewBox="0 0 32 32" fill="none" xmlns="http://www.w3.org/2000/svg">
<path d="M24.5714 2.28613C25.9881 2.28613 27.1994 2.78911 28.2053 3.79506C29.2113 4.80101 29.7143 6.01232 29.7143 7.42899V24.5718C29.7143 25.9885 29.2113 27.1998 28.2053 28.2058C27.1994 29.2117 25.9881 29.7147 24.5714 29.7147H7.42856C6.0119 29.7147 4.80059 29.2117 3.79463 28.2058C2.78868 27.1998 2.28571 25.9885 2.28571 24.5718V7.42899C2.28571 6.01232 2.78868 4.80101 3.79463 3.79506C4.80059 2.78911 6.0119 2.28613 7.42856 2.28613H24.5714ZM11.1964 8.8397H4.57142V22.8933H11.3928C12.7857 22.8933 13.9583 22.551 14.9107 21.8665C15.8631 21.182 16.3393 20.1671 16.3393 18.8218C16.3393 16.9409 15.4881 15.7504 13.7857 15.2504C15.0595 14.6314 15.6964 13.6552 15.6964 12.3218C15.6964 11.6433 15.5803 11.0689 15.3482 10.5986C15.1161 10.1284 14.7798 9.76828 14.3393 9.51828C13.8988 9.26828 13.4286 9.09268 12.9286 8.99149C12.4286 8.8903 11.8512 8.8397 11.1964 8.8397ZM10.8036 14.5183H7.66071V11.2326H10.5714C11.9881 11.2326 12.6964 11.7683 12.6964 12.8397C12.6964 13.9588 12.0655 14.5183 10.8036 14.5183ZM10.9643 20.5004H7.66071V16.6254H11.0357C12.5119 16.6254 13.25 17.298 13.25 18.6433C13.25 19.8814 12.4881 20.5004 10.9643 20.5004ZM22.5714 21.0718C21.7619 21.0718 21.1428 20.8457 20.7143 20.3933C20.2857 19.9409 20.0714 19.304 20.0714 18.4826H27.4107C27.4226 18.3635 27.4286 18.1849 27.4286 17.9468C27.4286 16.3754 26.9851 15.0629 26.0982 14.0093C25.2113 12.9558 24 12.429 22.4643 12.429C20.9405 12.429 19.6905 12.9409 18.7143 13.9647C17.7381 14.9885 17.25 16.2742 17.25 17.8218C17.25 19.429 17.7202 20.7207 18.6607 21.6968C19.6012 22.673 20.869 23.1611 22.4643 23.1611C24.9048 23.1611 26.494 22.0242 27.2321 19.7504H24.7678C24.6369 20.1552 24.3542 20.4766 23.9196 20.7147C23.4851 20.9528 23.0357 21.0718 22.5714 21.0718ZM22.3928 14.5361C23.7381 14.5361 24.4762 15.2623 24.6071 16.7147H20.0714C20.119 16.048 20.3512 15.5183 20.7678 15.1254C21.1845 14.7326 21.7262 14.5361 22.3928 14.5361ZM19.5 9.78613H25.1964V11.1611H19.5V9.78613Z" fill="#FFFCE1"/>
</svg>
