<svg width="30" height="30" viewBox="0 0 30 30" fill="none" xmlns="http://www.w3.org/2000/svg">
<path d="M7.875 20.2188C7.89974 20.5898 8.09766 20.7878 8.46875 20.8125H23.3125C23.6589 20.8125 23.9434 20.9238 24.166 21.1465C24.3887 21.3691 24.5 21.6536 24.5 22C24.5 22.3464 24.3887 22.6309 24.166 22.8535C23.9434 23.0762 23.6589 23.1875 23.3125 23.1875H8.46875C7.6276 23.1628 6.92253 22.8783 6.35352 22.334C5.80924 21.765 5.52474 21.0599 5.5 20.2188V7.75C5.5 7.40365 5.61133 7.11914 5.83398 6.89648C6.05664 6.67383 6.34115 6.5625 6.6875 6.5625C7.03385 6.5625 7.31836 6.67383 7.54102 6.89648C7.76367 7.11914 7.875 7.40365 7.875 7.75V20.2188ZM11.4375 11.3125C11.4375 10.9661 11.5488 10.6816 11.7715 10.459C11.9941 10.2363 12.2786 10.125 12.625 10.125C12.9714 10.125 13.2559 10.2363 13.4785 10.459C13.7012 10.6816 13.8125 10.9661 13.8125 11.3125C13.8125 11.6589 13.7012 11.9434 13.4785 12.166C13.2559 12.3887 12.9714 12.5 12.625 12.5C12.2786 12.5 11.9941 12.3887 11.7715 12.166C11.5488 11.9434 11.4375 11.6589 11.4375 11.3125ZM17.375 14.875C17.375 15.2214 17.2637 15.5059 17.041 15.7285C16.8184 15.9512 16.5339 16.0625 16.1875 16.0625C15.8411 16.0625 15.5566 15.9512 15.334 15.7285C15.1113 15.5059 15 15.2214 15 14.875C15 14.5286 15.1113 14.2441 15.334 14.0215C15.5566 13.7988 15.8411 13.6875 16.1875 13.6875C16.5339 13.6875 16.8184 13.7988 17.041 14.0215C17.2637 14.2441 17.375 14.5286 17.375 14.875ZM18.5625 17.25C18.5625 16.9036 18.6738 16.6191 18.8965 16.3965C19.1191 16.1738 19.4036 16.0625 19.75 16.0625C20.0964 16.0625 20.3809 16.1738 20.6035 16.3965C20.8262 16.6191 20.9375 16.9036 20.9375 17.25C20.9375 17.5964 20.8262 17.8809 20.6035 18.1035C20.3809 18.3262 20.0964 18.4375 19.75 18.4375C19.4036 18.4375 19.1191 18.3262 18.8965 18.1035C18.6738 17.8809 18.5625 17.5964 18.5625 17.25ZM22.125 10.125C22.125 10.4714 22.0137 10.7559 21.791 10.9785C21.5684 11.2012 21.2839 11.3125 20.9375 11.3125C20.5911 11.3125 20.3066 11.2012 20.084 10.9785C19.8613 10.7559 19.75 10.4714 19.75 10.125C19.75 9.77865 19.8613 9.49414 20.084 9.27148C20.3066 9.04883 20.5911 8.9375 20.9375 8.9375C21.2839 8.9375 21.5684 9.04883 21.791 9.27148C22.0137 9.49414 22.125 9.77865 22.125 10.125ZM10.25 17.25C10.25 16.9036 10.3613 16.6191 10.584 16.3965C10.8066 16.1738 11.0911 16.0625 11.4375 16.0625C11.7839 16.0625 12.0684 16.1738 12.291 16.3965C12.5137 16.6191 12.625 16.9036 12.625 17.25C12.625 17.5964 12.5137 17.8809 12.291 18.1035C12.0684 18.3262 11.7839 18.4375 11.4375 18.4375C11.0911 18.4375 10.8066 18.3262 10.584 18.1035C10.3613 17.8809 10.25 17.5964 10.25 17.25Z" fill="#C8C8C8"/>
</svg>
