<svg width="30" height="30" viewBox="0 0 30 30" fill="none" xmlns="http://www.w3.org/2000/svg">
<path d="M18.5254 6.89648L13.7754 23.5215C13.6764 23.8431 13.4909 24.0781 13.2188 24.2266C12.9219 24.375 12.6126 24.4121 12.291 24.3379C11.9694 24.2389 11.7344 24.0534 11.5859 23.7812C11.4375 23.4844 11.4004 23.1751 11.4746 22.8535L16.2246 6.22852C16.3236 5.9069 16.5091 5.67188 16.7812 5.52344C17.0781 5.375 17.3874 5.33789 17.709 5.41211C18.0306 5.51107 18.2656 5.69661 18.4141 5.96875C18.5625 6.26562 18.5996 6.57487 18.5254 6.89648ZM22.3848 9.86523L26.541 14.0215C26.7637 14.2689 26.875 14.5534 26.875 14.875C26.875 15.1966 26.7637 15.4811 26.541 15.7285L22.3848 19.8848C22.1374 20.1074 21.8529 20.2188 21.5312 20.2188C21.2096 20.2188 20.9251 20.1074 20.6777 19.8848C20.4551 19.6374 20.3438 19.3529 20.3438 19.0312C20.3438 18.7096 20.4551 18.4251 20.6777 18.1777L24.0176 14.875L20.6777 11.5723C20.4551 11.3249 20.3438 11.0404 20.3438 10.7188C20.3438 10.3971 20.4551 10.1126 20.6777 9.86523C20.9251 9.64258 21.2096 9.53125 21.5312 9.53125C21.8529 9.53125 22.1374 9.64258 22.3848 9.86523ZM9.32227 11.5723L5.98242 14.875L9.32227 18.1777C9.54492 18.4251 9.65625 18.7096 9.65625 19.0312C9.65625 19.3529 9.54492 19.6374 9.32227 19.8848C9.07487 20.1074 8.79036 20.2188 8.46875 20.2188C8.14714 20.2188 7.86263 20.1074 7.61523 19.8848L3.45898 15.7285C3.23633 15.4811 3.125 15.1966 3.125 14.875C3.125 14.5534 3.23633 14.2689 3.45898 14.0215L7.61523 9.86523C7.86263 9.64258 8.14714 9.53125 8.46875 9.53125C8.79036 9.53125 9.07487 9.64258 9.32227 9.86523C9.54492 10.1126 9.65625 10.3971 9.65625 10.7188C9.65625 11.0404 9.54492 11.3249 9.32227 11.5723Z" fill="#C8C8C8"/>
</svg>
