<svg width="30" height="30" viewBox="0 0 30 30" fill="none" xmlns="http://www.w3.org/2000/svg">
<path d="M12.625 8.34375C12.6497 7.84896 12.8229 7.42839 13.1445 7.08203C13.4909 6.76042 13.9115 6.58724 14.4062 6.5625H15.5938C16.0885 6.58724 16.5091 6.76042 16.8555 7.08203C17.1771 7.42839 17.3503 7.84896 17.375 8.34375V21.4062C17.3503 21.901 17.1771 22.3216 16.8555 22.668C16.5091 22.9896 16.0885 23.1628 15.5938 23.1875H14.4062C13.9115 23.1628 13.4909 22.9896 13.1445 22.668C12.8229 22.3216 12.6497 21.901 12.625 21.4062V8.34375ZM6.6875 15.4688C6.71224 14.974 6.88542 14.5534 7.20703 14.207C7.55339 13.8854 7.97396 13.7122 8.46875 13.6875H9.65625C10.151 13.7122 10.5716 13.8854 10.918 14.207C11.2396 14.5534 11.4128 14.974 11.4375 15.4688V21.4062C11.4128 21.901 11.2396 22.3216 10.918 22.668C10.5716 22.9896 10.151 23.1628 9.65625 23.1875H8.46875C7.97396 23.1628 7.55339 22.9896 7.20703 22.668C6.88542 22.3216 6.71224 21.901 6.6875 21.4062V15.4688ZM21.5312 8.9375C22.026 8.96224 22.4466 9.13542 22.793 9.45703C23.1146 9.80339 23.2878 10.224 23.3125 10.7188V21.4062C23.2878 21.901 23.1146 22.3216 22.793 22.668C22.4466 22.9896 22.026 23.1628 21.5312 23.1875H20.3438C19.849 23.1628 19.4284 22.9896 19.082 22.668C18.7604 22.3216 18.5872 21.901 18.5625 21.4062V10.7188C18.5872 10.224 18.7604 9.80339 19.082 9.45703C19.4284 9.13542 19.849 8.96224 20.3438 8.9375H21.5312Z" fill="#C8C8C8"/>
</svg>
