<svg width="32" height="32" viewBox="0 0 32 32" fill="none" xmlns="http://www.w3.org/2000/svg">
<g clip-path="url(#clip0_515_9707)">
<path d="M31.9667 16.6907C28.6053 15.632 24.6853 15.5067 20.7787 16.3627C20.1626 14.841 19.4688 13.3519 18.7 11.9013C22.528 10.484 25.796 8.37333 27.864 5.30533C30.424 8.144 32 11.8893 32 16C32 16.2333 31.9733 16.46 31.9667 16.6907ZM26.8267 4.256C24.924 7.236 21.7493 9.26667 17.9987 10.624C15.995 7.09648 13.5632 3.82996 10.7587 0.898667C12.443 0.307246 14.2149 0.00344944 16 0C20.1773 0 23.9733 1.62267 26.8267 4.256ZM9.21733 1.52933C12.0324 4.40681 14.4616 7.63786 16.444 11.1413C11.3427 12.6893 5.432 13.1653 0.264 13.1787C1.18933 8.00933 4.6 3.704 9.21733 1.52933ZM0 16C0 15.5387 0.0293333 15.0853 0.0693333 14.636C5.49067 14.6333 11.74 14.128 17.1467 12.4347C17.896 13.8435 18.5755 15.2883 19.1827 16.764C13.7053 18.3493 8.44267 21.9173 5.02133 27.6107C1.93733 24.6907 0 20.5707 0 16ZM6.132 28.5707C9.376 23.0427 14.448 19.5987 19.7053 18.104C21.2467 22.192 22.2187 26.4347 22.5147 30.5987C20.4667 31.5215 18.2463 31.9992 16 32C12.276 32 8.85333 30.7107 6.132 28.5707ZM23.972 29.852C23.6853 25.7533 22.7693 21.6587 21.308 17.716C24.9747 16.9507 28.6467 17.104 31.7707 18.1453C31.7933 18.1533 31.816 18.148 31.8387 18.1533C31.5066 20.5742 30.6251 22.887 29.2616 24.9147C27.8981 26.9424 26.0887 28.6312 23.972 29.852Z" fill="#FFFCE1"/>
</g>
<defs>
<clipPath id="clip0_515_9707">
<rect width="32" height="32" fill="white"/>
</clipPath>
</defs>
</svg>
