<svg width="30" height="30" viewBox="0 0 30 30" fill="none" xmlns="http://www.w3.org/2000/svg">
<path d="M20.0469 9.82812C20.3438 10.1497 20.5046 10.5208 20.5293 10.9414C20.554 11.3372 20.4551 11.7083 20.2324 12.0547C20.8262 13.2174 21.0365 14.4297 20.8633 15.6914C20.6901 16.9531 20.1335 18.0664 19.1934 19.0312C18.2038 19.9961 17.0658 20.5651 15.7793 20.7383C14.4928 20.9115 13.2435 20.6641 12.0312 19.9961C10.8438 19.3034 10.0026 18.3509 9.50781 17.1387C9.01302 15.9264 8.9388 14.6647 9.28516 13.3535C9.65625 12.0176 10.3613 10.9538 11.4004 10.1621C12.4395 9.37044 13.6393 8.96224 15 8.9375C15.9648 8.9375 16.8926 9.1849 17.7832 9.67969C18.1543 9.43229 18.5378 9.32096 18.9336 9.3457C19.3542 9.37044 19.7253 9.53125 20.0469 9.82812ZM17.9316 17.8066C18.5996 17.1139 18.9954 16.3223 19.1191 15.4316C19.2181 14.5163 19.0449 13.6504 18.5996 12.834C18.2038 12.8092 17.8451 12.6484 17.5234 12.3516C17.2266 12.0299 17.0658 11.6712 17.041 11.2754C16.0514 10.7559 15.0495 10.6074 14.0352 10.8301C13.0208 11.0775 12.1921 11.6465 11.5488 12.5371C10.9303 13.4525 10.6953 14.4297 10.8438 15.4688C10.9674 16.4831 11.4499 17.3613 12.291 18.1035C13.1569 18.7962 14.1217 19.1178 15.1855 19.0684C16.2246 18.9941 17.14 18.5736 17.9316 17.8066ZM14.9629 12.5C15.6556 12.5247 16.2246 12.7598 16.6699 13.2051C17.1152 13.6504 17.3503 14.207 17.375 14.875C17.3503 15.543 17.1152 16.0996 16.6699 16.5449C16.2246 16.9655 15.668 17.1882 15 17.2129C14.332 17.1882 13.7754 16.9531 13.3301 16.5078C12.8848 16.0625 12.6497 15.5059 12.625 14.8379C12.6497 14.1947 12.8724 13.6504 13.293 13.2051C13.7383 12.7598 14.2949 12.5247 14.9629 12.5ZM18.0059 22C18.1543 22.4948 18.4141 22.903 18.7852 23.2246C18.8346 23.2741 18.8841 23.3236 18.9336 23.373C18.9583 23.3978 18.9831 23.4225 19.0078 23.4473C17.1523 24.2884 15.2721 24.5358 13.3672 24.1895C11.4375 23.8678 9.74284 22.9896 8.2832 21.5547C6.67513 19.8971 5.77214 17.9798 5.57422 15.8027C5.35156 13.6257 5.84635 11.5846 7.05859 9.67969C6.83594 9.23438 6.78646 8.77669 6.91016 8.30664C7.00911 7.86133 7.24414 7.47786 7.61523 7.15625C8.01107 6.85938 8.44401 6.71094 8.91406 6.71094C9.38411 6.71094 9.81706 6.85938 10.2129 7.15625C10.584 7.47786 10.819 7.8737 10.918 8.34375C11.0417 8.78906 11.0046 9.23438 10.8066 9.67969C10.5592 10.125 10.2253 10.4466 9.80469 10.6445C9.38411 10.8672 8.92643 10.9167 8.43164 10.793C7.51628 12.3516 7.14518 13.9967 7.31836 15.7285C7.51628 17.4603 8.25846 18.9941 9.54492 20.3301C10.6829 21.4434 12.0065 22.1484 13.5156 22.4453C15.0495 22.7422 16.5462 22.5938 18.0059 22ZM21.7168 8.1582C23.3496 9.84049 24.265 11.7702 24.4629 13.9473C24.6608 16.1243 24.1536 18.1654 22.9414 20.0703C23.1641 20.5156 23.2135 20.9733 23.0898 21.4434C22.9909 21.8887 22.7559 22.2721 22.3848 22.5938C21.9889 22.8906 21.556 23.0391 21.0859 23.0391C20.6159 23.0391 20.1829 22.8906 19.7871 22.5938C19.3913 22.2721 19.1439 21.8763 19.0449 21.4062C18.946 20.9609 18.9954 20.5156 19.1934 20.0703C19.416 19.625 19.75 19.3034 20.1953 19.1055C20.6159 18.9076 21.0736 18.8581 21.5684 18.957C22.4837 17.3984 22.8548 15.7533 22.6816 14.0215C22.4837 12.2897 21.7415 10.7559 20.4551 9.41992C19.3171 8.30664 17.9935 7.60156 16.4844 7.30469C14.9505 7.00781 13.4538 7.15625 11.9941 7.75C11.8457 7.27995 11.5859 6.85938 11.2148 6.48828C11.1654 6.4388 11.1159 6.38932 11.0664 6.33984C11.0417 6.3151 11.0169 6.29036 10.9922 6.26562C12.8477 5.42448 14.7402 5.17708 16.6699 5.52344C18.5749 5.84505 20.2572 6.72331 21.7168 8.1582Z" fill="#C8C8C8"/>
</svg>
