<svg width="32" height="32" viewBox="0 0 32 32" fill="none" xmlns="http://www.w3.org/2000/svg">
<path d="M24.5714 2.28613C25.9881 2.28613 27.1994 2.78911 28.2053 3.79506C29.2113 4.80101 29.7143 6.01232 29.7143 7.42899V24.5718C29.7143 25.9885 29.2113 27.1998 28.2053 28.2058C27.1994 29.2117 25.9881 29.7147 24.5714 29.7147H21.2143V19.0897H24.7678L25.3036 14.9468H21.2143V12.304C21.2143 11.6373 21.3542 11.1373 21.6339 10.804C21.9137 10.4707 22.4583 10.304 23.2678 10.304L25.4464 10.2861V6.5897C24.6964 6.48256 23.6369 6.42899 22.2678 6.42899C20.6488 6.42899 19.3542 6.90518 18.3839 7.85756C17.4137 8.80994 16.9286 10.1552 16.9286 11.8933V14.9468H13.3571V19.0897H16.9286V29.7147H7.42856C6.0119 29.7147 4.80059 29.2117 3.79463 28.2058C2.78868 27.1998 2.28571 25.9885 2.28571 24.5718V7.42899C2.28571 6.01232 2.78868 4.80101 3.79463 3.79506C4.80059 2.78911 6.0119 2.28613 7.42856 2.28613H24.5714Z" fill="#FFFCE1"/>
</svg>
