<svg width="30" height="30" viewBox="0 0 30 30" fill="none" xmlns="http://www.w3.org/2000/svg">
<path d="M17.375 7.75C17.3503 8.41797 17.1152 8.97461 16.6699 9.41992C16.2246 9.86523 15.668 10.1003 15 10.125C14.332 10.1003 13.7754 9.86523 13.3301 9.41992C12.8848 8.97461 12.6497 8.41797 12.625 7.75C12.6497 7.08203 12.8848 6.52539 13.3301 6.08008C13.7754 5.63477 14.332 5.39974 15 5.375C15.668 5.39974 16.2246 5.63477 16.6699 6.08008C17.1152 6.52539 17.3503 7.08203 17.375 7.75ZM16.1875 11.3125C16.8555 11.3372 17.4121 11.5723 17.8574 12.0176C18.3027 12.4629 18.5378 13.0195 18.5625 13.6875V15.4688C18.5625 15.8151 18.4512 16.0996 18.2285 16.3223C18.0059 16.5449 17.7214 16.6562 17.375 16.6562H17.3008L16.8926 20.3672C16.7689 21.0104 16.373 21.3568 15.7051 21.4062H14.2949C13.627 21.3568 13.2311 21.0104 13.1074 20.3672L12.6992 16.6562H12.625C12.2786 16.6562 11.9941 16.5449 11.7715 16.3223C11.5488 16.0996 11.4375 15.8151 11.4375 15.4688V13.6875C11.4622 13.0195 11.6973 12.4629 12.1426 12.0176C12.5879 11.5723 13.1445 11.3372 13.8125 11.3125H16.1875ZM7.83789 20.7754C7.73893 20.8249 7.63997 20.8743 7.54102 20.9238C7.41732 21.0475 7.41732 21.1712 7.54102 21.2949C7.88737 21.5176 8.41927 21.7279 9.13672 21.9258C10.6706 22.3464 12.625 22.569 15 22.5938C17.375 22.569 19.3294 22.3464 20.8633 21.9258C21.5807 21.7279 22.1126 21.5176 22.459 21.2949C22.5827 21.1712 22.5827 21.0475 22.459 20.9238C22.36 20.8743 22.2611 20.8249 22.1621 20.7754C21.5684 20.4538 20.7148 20.194 19.6016 19.9961C19.0573 19.8477 18.8099 19.5013 18.8594 18.957C19.0078 18.4375 19.3542 18.2025 19.8984 18.252C21.1354 18.4746 22.1497 18.7839 22.9414 19.1797C23.3372 19.3776 23.6836 19.6126 23.9805 19.8848C24.3021 20.2064 24.4753 20.6146 24.5 21.1094C24.4753 21.5052 24.3639 21.8392 24.166 22.1113C23.9434 22.3835 23.696 22.6061 23.4238 22.7793C22.8548 23.1257 22.1497 23.4102 21.3086 23.6328C19.6016 24.1029 17.4987 24.3503 15 24.375C12.5013 24.3503 10.3984 24.1029 8.69141 23.6328C7.85026 23.4102 7.14518 23.1257 6.57617 22.7793C6.30404 22.6061 6.05664 22.3835 5.83398 22.1113C5.63607 21.8392 5.52474 21.5052 5.5 21.1094C5.52474 20.6146 5.69792 20.2064 6.01953 19.8848C6.31641 19.6126 6.66276 19.3776 7.05859 19.1797C7.85026 18.7839 8.86458 18.4746 10.1016 18.252C10.6458 18.2025 10.9922 18.4375 11.1406 18.957C11.1654 19.5013 10.918 19.8477 10.3984 19.9961C9.28516 20.194 8.43164 20.4538 7.83789 20.7754Z" fill="#C8C8C8"/>
</svg>
