<svg width="32" height="32" viewBox="0 0 32 32" fill="none" xmlns="http://www.w3.org/2000/svg">
<path d="M27.2933 2.6662H4.70667C4.45278 2.66268 4.20067 2.7092 3.96476 2.80311C3.72885 2.89703 3.51374 3.0365 3.33174 3.21355C3.14973 3.39061 3.00438 3.60178 2.904 3.83501C2.80361 4.06825 2.75015 4.31897 2.74667 4.57287V27.4262C2.75015 27.6801 2.80361 27.9308 2.904 28.1641C3.00438 28.3973 3.14973 28.6085 3.33174 28.7855C3.51374 28.9626 3.72885 29.102 3.96476 29.196C4.20067 29.2899 4.45278 29.3364 4.70667 29.3329H27.2933C27.5472 29.3364 27.7993 29.2899 28.0353 29.196C28.2712 29.102 28.4863 28.9626 28.6683 28.7855C28.8503 28.6085 28.9956 28.3973 29.096 28.1641C29.1964 27.9308 29.2499 27.6801 29.2533 27.4262V4.57287C29.2499 4.31897 29.1964 4.06825 29.096 3.83501C28.9956 3.60178 28.8503 3.39061 28.6683 3.21355C28.4863 3.0365 28.2712 2.89703 28.0353 2.80311C27.7993 2.7092 27.5472 2.66268 27.2933 2.6662ZM10.7867 24.9862H6.78667V12.9862H10.7867V24.9862ZM8.78667 11.3062C8.23502 11.3062 7.70597 11.0871 7.31589 10.697C6.92582 10.3069 6.70667 9.77785 6.70667 9.2262C6.70667 8.67455 6.92582 8.1455 7.31589 7.75542C7.70597 7.36534 8.23502 7.1462 8.78667 7.1462C9.0796 7.11298 9.37624 7.14201 9.65717 7.23138C9.93811 7.32075 10.197 7.46846 10.4169 7.66482C10.6368 7.86118 10.8127 8.10177 10.9332 8.37084C11.0536 8.63992 11.1159 8.9314 11.1159 9.2262C11.1159 9.52101 11.0536 9.81249 10.9332 10.0816C10.8127 10.3506 10.6368 10.5912 10.4169 10.7876C10.197 10.9839 9.93811 11.1317 9.65717 11.221C9.37624 11.3104 9.0796 11.3394 8.78667 11.3062ZM25.2133 24.9862H21.2133V18.5462C21.2133 16.9329 20.64 15.8795 19.1867 15.8795C18.7369 15.8828 18.2989 16.0239 17.9318 16.2838C17.5647 16.5436 17.286 16.9098 17.1333 17.3329C17.029 17.6463 16.9838 17.9763 17 18.3062V24.9729H13C13 24.9729 13 14.0662 13 12.9729H17V14.6662C17.3634 14.0357 17.8919 13.5162 18.5286 13.1638C19.1653 12.8114 19.8861 12.6393 20.6133 12.6662C23.28 12.6662 25.2133 14.3862 25.2133 18.0795V24.9862Z" fill="#FFFCE1"/>
</svg>
