<svg width="30" height="30" viewBox="0 0 30 30" fill="none" xmlns="http://www.w3.org/2000/svg">
<path d="M19.75 5.375C20.2448 5.39974 20.6654 5.57292 21.0117 5.89453C21.3333 6.24089 21.5065 6.66146 21.5312 7.15625V22.5938C21.5065 23.0885 21.3333 23.5091 21.0117 23.8555C20.6654 24.1771 20.2448 24.3503 19.75 24.375H10.25C9.75521 24.3503 9.33464 24.1771 8.98828 23.8555C8.66667 23.5091 8.49349 23.0885 8.46875 22.5938V7.15625C8.49349 6.66146 8.66667 6.24089 8.98828 5.89453C9.33464 5.57292 9.75521 5.39974 10.25 5.375H19.75ZM16.7812 21.9629C16.7565 21.6413 16.5586 21.4557 16.1875 21.4062H13.8125C13.4414 21.431 13.2435 21.6289 13.2188 22C13.2682 22.3711 13.4538 22.569 13.7754 22.5938H16.1875C16.5586 22.569 16.7565 22.3587 16.7812 21.9629ZM19.1562 19.625V7.75H10.8438V19.625H19.1562Z" fill="#C8C8C8"/>
</svg>
