<svg width="30" height="30" viewBox="0 0 30 30" fill="none" xmlns="http://www.w3.org/2000/svg">
<path d="M7.875 8.9375V18.4375H5.5V8.34375C5.52474 7.84896 5.69792 7.42839 6.01953 7.08203C6.36589 6.76042 6.78646 6.58724 7.28125 6.5625H22.7188C23.2135 6.58724 23.6341 6.76042 23.9805 7.08203C24.3021 7.42839 24.4753 7.84896 24.5 8.34375V18.4375H22.125V8.9375H7.875ZM26.2812 19.5879C26.6523 19.6374 26.8503 19.8353 26.875 20.1816V20.7754C26.8503 21.4434 26.6152 22 26.1699 22.4453C25.7246 22.8906 25.168 23.1257 24.5 23.1504H5.5C4.83203 23.1257 4.27539 22.8906 3.83008 22.4453C3.38477 22 3.14974 21.4434 3.125 20.7754V20.1816C3.14974 19.8353 3.34766 19.6374 3.71875 19.5879H26.2812Z" fill="#C8C8C8"/>
</svg>
