<svg width="30" height="30" viewBox="0 0 30 30" fill="none" xmlns="http://www.w3.org/2000/svg">
<path d="M17.9688 5.375C18.4635 5.39974 18.8841 5.57292 19.2305 5.89453C19.5521 6.24089 19.7253 6.66146 19.75 7.15625V10.7188C19.7253 11.2135 19.5521 11.6341 19.2305 11.9805C18.8841 12.3021 18.4635 12.4753 17.9688 12.5H16.1875V13.6875H25.6875C26.0339 13.6875 26.3184 13.7988 26.541 14.0215C26.7637 14.2441 26.875 14.5286 26.875 14.875C26.875 15.2214 26.7637 15.5059 26.541 15.7285C26.3184 15.9512 26.0339 16.0625 25.6875 16.0625H22.125V17.25H23.9062C24.401 17.2747 24.8216 17.4479 25.168 17.7695C25.4896 18.1159 25.6628 18.5365 25.6875 19.0312V22.5938C25.6628 23.0885 25.4896 23.5091 25.168 23.8555C24.8216 24.1771 24.401 24.3503 23.9062 24.375H17.9688C17.474 24.3503 17.0534 24.1771 16.707 23.8555C16.3854 23.5091 16.2122 23.0885 16.1875 22.5938V19.0312C16.2122 18.5365 16.3854 18.1159 16.707 17.7695C17.0534 17.4479 17.474 17.2747 17.9688 17.25H19.75V16.0625H10.25V17.25H12.0312C12.526 17.2747 12.9466 17.4479 13.293 17.7695C13.6146 18.1159 13.7878 18.5365 13.8125 19.0312V22.5938C13.7878 23.0885 13.6146 23.5091 13.293 23.8555C12.9466 24.1771 12.526 24.3503 12.0312 24.375H6.09375C5.59896 24.3503 5.17839 24.1771 4.83203 23.8555C4.51042 23.5091 4.33724 23.0885 4.3125 22.5938V19.0312C4.33724 18.5365 4.51042 18.1159 4.83203 17.7695C5.17839 17.4479 5.59896 17.2747 6.09375 17.25H7.875V16.0625H4.3125C3.96615 16.0625 3.68164 15.9512 3.45898 15.7285C3.23633 15.5059 3.125 15.2214 3.125 14.875C3.125 14.5286 3.23633 14.2441 3.45898 14.0215C3.68164 13.7988 3.96615 13.6875 4.3125 13.6875H13.8125V12.5H12.0312C11.5365 12.4753 11.1159 12.3021 10.7695 11.9805C10.4479 11.6341 10.2747 11.2135 10.25 10.7188V7.15625C10.2747 6.66146 10.4479 6.24089 10.7695 5.89453C11.1159 5.57292 11.5365 5.39974 12.0312 5.375H17.9688ZM12.625 7.75V10.125H17.375V7.75H12.625ZM11.4375 22V19.625H6.6875V22H11.4375ZM18.5625 19.625V22H23.3125V19.625H18.5625Z" fill="#C8C8C8"/>
</svg>
