<svg width="30" height="30" viewBox="0 0 30 30" fill="none" xmlns="http://www.w3.org/2000/svg">
<path d="M25.3906 21.8516C25.6875 22.4206 25.9844 22.8906 26.2812 23.2617C26.5534 23.6328 26.7266 23.8431 26.8008 23.8926C26.875 23.9915 26.8874 24.0905 26.8379 24.1895C26.7884 24.3132 26.7018 24.375 26.5781 24.375C25.2422 24.3255 24.1165 24.0534 23.2012 23.5586C22.1621 24.0781 21.0117 24.3503 19.75 24.375C18.043 24.3503 16.571 23.8802 15.334 22.9648C14.097 22.0495 13.2682 20.8743 12.8477 19.4395C14.8516 18.9941 16.4967 18.0911 17.7832 16.7305C19.0449 15.3698 19.7005 13.7617 19.75 11.9062C19.75 11.7331 19.7376 11.5599 19.7129 11.3867C19.7129 11.362 19.7129 11.3372 19.7129 11.3125C19.7129 11.3125 19.7253 11.3125 19.75 11.3125C21.7786 11.362 23.4609 12.0052 24.7969 13.2422C26.1328 14.4544 26.8255 15.9883 26.875 17.8438C26.8503 19.3776 26.3555 20.7135 25.3906 21.8516ZM18.5625 11.9062C18.513 13.7617 17.7585 15.2956 16.2988 16.5078C14.8392 17.7448 13.0208 18.388 10.8438 18.4375C9.40885 18.4128 8.11003 18.1159 6.94727 17.5469C6.0319 18.0911 4.85677 18.388 3.42188 18.4375C3.29818 18.4375 3.21159 18.3757 3.16211 18.252C3.11263 18.153 3.125 18.054 3.19922 17.9551C3.22396 17.9303 3.39714 17.7201 3.71875 17.3242C4.01562 16.9284 4.33724 16.4212 4.68359 15.8027C3.66927 14.6895 3.14974 13.3906 3.125 11.9062C3.17448 10.0508 3.92904 8.51693 5.38867 7.30469C6.84831 6.06771 8.66667 5.42448 10.8438 5.375C13.0208 5.42448 14.8392 6.06771 16.2988 7.30469C17.7585 8.51693 18.513 10.0508 18.5625 11.9062ZM10.8809 16.0625C11.4251 16.013 11.722 15.7161 11.7715 15.1719C11.722 14.6029 11.4128 14.2936 10.8438 14.2441C10.2995 14.2936 10.0026 14.6029 9.95312 15.1719C10.0026 15.7161 10.3118 16.013 10.8809 16.0625ZM12.8105 11.7207C13.4538 11.3249 13.7878 10.7682 13.8125 10.0508C13.7878 9.48177 13.5898 9.01172 13.2188 8.64062C12.8477 8.26953 12.3776 8.07161 11.8086 8.04688H10.3613C9.79232 8.07161 9.32227 8.26953 8.95117 8.64062C8.58008 9.01172 8.38216 9.48177 8.35742 10.0508C8.4069 10.4466 8.64193 10.6693 9.0625 10.7188C9.45833 10.6693 9.68099 10.4466 9.73047 10.0508C9.75521 9.65495 9.96549 9.44466 10.3613 9.41992H11.8086C12.2044 9.44466 12.4147 9.65495 12.4395 10.0508C12.4395 10.2734 12.3405 10.4466 12.1426 10.5703L10.5098 11.5352C10.2871 11.6836 10.1758 11.8815 10.1758 12.1289V12.5742C10.2253 12.9948 10.4479 13.2298 10.8438 13.2793C11.2643 13.2298 11.4993 12.9948 11.5488 12.5742V12.5371L12.8105 11.7207Z" fill="#C8C8C8"/>
</svg>
