<svg width="30" height="30" viewBox="0 0 30 30" fill="none" xmlns="http://www.w3.org/2000/svg">
<path d="M24.0547 21.8516C24.3516 22.1484 24.5 22.4948 24.5 22.8906C24.5 23.2865 24.3516 23.6328 24.0547 23.9297C23.7578 24.2266 23.4115 24.375 23.0156 24.375C22.6198 24.375 22.2734 24.2266 21.9766 23.9297L17.5234 19.5137C15.9896 20.5527 14.196 20.9609 12.1426 20.7383C10.4108 20.4909 8.95117 19.7487 7.76367 18.5117C6.55143 17.2995 5.82161 15.8275 5.57422 14.0957C5.3763 12.3887 5.64844 10.8424 6.39062 9.45703C7.15755 8.09635 8.22135 7.03255 9.58203 6.26562C10.9674 5.52344 12.5137 5.2513 14.2207 5.44922C15.9525 5.69661 17.4245 6.42643 18.6367 7.63867C19.849 8.82617 20.5911 10.2858 20.8633 12.0176C21.0859 14.071 20.6777 15.8646 19.6387 17.3984L24.0547 21.8516ZM8.43164 13.0938C8.45638 14.4297 8.92643 15.543 9.8418 16.4336C10.7324 17.349 11.8457 17.819 13.1816 17.8438C14.5176 17.819 15.6432 17.349 16.5586 16.4336C17.4492 15.543 17.9069 14.4297 17.9316 13.0938C17.9069 11.7578 17.4492 10.6445 16.5586 9.75391C15.6432 8.83854 14.5176 8.36849 13.1816 8.34375C11.8457 8.36849 10.7324 8.83854 9.8418 9.75391C8.92643 10.6445 8.45638 11.7578 8.43164 13.0938Z" fill="#C8C8C8"/>
</svg>
