<svg width="30" height="30" viewBox="0 0 30 30" fill="none" xmlns="http://www.w3.org/2000/svg">
<path d="M24.5 14.8379C24.4753 16.6191 24.0423 18.2272 23.2012 19.6621C22.36 21.097 21.222 22.235 19.7871 23.0762C18.377 23.9173 16.7812 24.3503 15 24.375C14.6042 24.375 14.2207 24.3503 13.8496 24.3008C13.998 24.1029 14.1094 23.8678 14.1836 23.5957L14.9629 21.4805L16.2988 20.998C16.7441 20.8249 17.0905 20.5404 17.3379 20.1445C17.5853 19.7734 17.6966 19.3652 17.6719 18.9199C17.5729 17.9551 17.0905 17.2624 16.2246 16.8418L11.6602 14.9121C11.3138 14.8132 11.054 14.9245 10.8809 15.2461C10.7819 15.5924 10.8932 15.8522 11.2148 16.0254L14.2578 17.2871L10.8438 18.5117V18.4375C10.819 17.8438 10.6211 17.349 10.25 16.9531C9.85417 16.582 9.35938 16.3841 8.76562 16.3594C8.17188 16.3841 7.67708 16.582 7.28125 16.9531C6.91016 17.349 6.71224 17.8438 6.6875 18.4375V19.4766C5.92057 18.0911 5.52474 16.5573 5.5 14.875C5.52474 13.0938 5.95768 11.498 6.79883 10.0879C7.63997 8.65299 8.77799 7.51497 10.2129 6.67383C11.623 5.83268 13.2188 5.39974 15 5.375C16.7812 5.39974 18.377 5.83268 19.7871 6.67383C21.222 7.51497 22.36 8.65299 23.2012 10.0879C24.0423 11.498 24.4753 13.0938 24.5 14.875V14.8379ZM12.0312 10.6816C11.7096 10.7064 11.4375 10.8301 11.2148 11.0527C10.9922 11.2754 10.8685 11.5475 10.8438 11.8691C10.8685 12.2155 10.9922 12.5 11.2148 12.7227C11.4375 12.9453 11.7096 13.0566 12.0312 13.0566C12.3776 13.0566 12.6621 12.9453 12.8848 12.7227C13.1074 12.5 13.2188 12.2155 13.2188 11.8691C13.2188 11.5475 13.1074 11.2754 12.8848 11.0527C12.6621 10.8301 12.3776 10.7064 12.0312 10.6816ZM17.9688 13.6504C18.3151 13.6504 18.5996 13.5391 18.8223 13.3164C19.0449 13.0938 19.1562 12.8092 19.1562 12.4629C19.1562 12.1413 19.0449 11.8691 18.8223 11.6465C18.5996 11.4238 18.3151 11.3001 17.9688 11.2754C17.6471 11.3001 17.375 11.4238 17.1523 11.6465C16.9297 11.8691 16.806 12.1413 16.7812 12.4629C16.806 12.8092 16.9297 13.0938 17.1523 13.3164C17.375 13.5391 17.6471 13.6504 17.9688 13.6504ZM10.7695 9.90234C11.2396 9.65495 11.722 9.55599 12.2168 9.60547C12.7116 9.65495 13.1445 9.84049 13.5156 10.1621L14.0352 10.5703C14.332 10.793 14.6042 10.7682 14.8516 10.4961C15.0742 10.1992 15.0495 9.92708 14.7773 9.67969L14.2949 9.27148C13.7012 8.77669 13.0456 8.49219 12.3281 8.41797C11.5859 8.34375 10.8809 8.49219 10.2129 8.86328L9.95312 9.01172C9.65625 9.23438 9.58203 9.50651 9.73047 9.82812C9.95312 10.125 10.2253 10.1992 10.5469 10.0508L10.7695 9.90234ZM9.65625 20.2559L15.2969 18.1777C15.8164 18.054 16.1999 18.2396 16.4473 18.7344C16.571 19.2539 16.3854 19.6374 15.8906 19.8848L14.0352 20.5527L13.0703 23.1875C12.7734 23.9297 12.2168 24.3255 11.4004 24.375H9.65625C9.16146 24.3503 8.74089 24.1771 8.39453 23.8555C8.07292 23.5091 7.89974 23.0885 7.875 22.5938V18.4375C7.92448 17.8932 8.22135 17.5964 8.76562 17.5469C9.3099 17.5964 9.60677 17.8932 9.65625 18.4375V20.2559Z" fill="#C8C8C8"/>
</svg>
