<svg width="30" height="30" viewBox="0 0 30 30" fill="none" xmlns="http://www.w3.org/2000/svg">
<path d="M11.4375 14.875C10.1016 14.8503 8.97591 14.3926 8.06055 13.502C7.16992 12.5866 6.71224 11.4609 6.6875 10.125C6.71224 8.78906 7.16992 7.66341 8.06055 6.74805C8.97591 5.85742 10.1016 5.39974 11.4375 5.375C12.7734 5.39974 13.8991 5.85742 14.8145 6.74805C15.7051 7.66341 16.1628 8.78906 16.1875 10.125C16.1628 11.4609 15.7051 12.5866 14.8145 13.502C13.8991 14.3926 12.7734 14.8503 11.4375 14.875ZM13.3301 16.6562C15.1361 16.7057 16.6452 17.3366 17.8574 18.5488C19.0697 19.7611 19.7005 21.2702 19.75 23.0762C19.75 23.4473 19.6263 23.7565 19.3789 24.0039C19.1315 24.2513 18.8223 24.375 18.4512 24.375H4.42383C4.05273 24.375 3.74349 24.2513 3.49609 24.0039C3.2487 23.7565 3.125 23.4473 3.125 23.0762C3.17448 21.2702 3.80534 19.7611 5.01758 18.5488C6.22982 17.3366 7.73893 16.7057 9.54492 16.6562H13.3301ZM20.9004 17.25C22.6074 17.2995 24.0176 17.8809 25.1309 18.9941C26.2441 20.1074 26.8255 21.4928 26.875 23.1504C26.875 23.4967 26.7637 23.7812 26.541 24.0039C26.3184 24.2513 26.0339 24.375 25.6875 24.375H20.5664C20.8138 24.0039 20.9375 23.571 20.9375 23.0762C20.9375 21.9134 20.6901 20.8249 20.1953 19.8105C19.7005 18.821 19.0202 17.9674 18.1543 17.25H20.9004ZM19.1562 14.875C17.9688 14.8503 16.9792 14.4421 16.1875 13.6504C16.9544 12.6361 17.3503 11.4609 17.375 10.125C17.3503 9.13542 17.1152 8.23242 16.6699 7.41602C17.3874 6.87174 18.2161 6.58724 19.1562 6.5625C20.3438 6.58724 21.321 6.99544 22.0879 7.78711C22.8796 8.55404 23.2878 9.53125 23.3125 10.7188C23.2878 11.9062 22.8796 12.8835 22.0879 13.6504C21.321 14.4421 20.3438 14.8503 19.1562 14.875Z" fill="#C8C8C8"/>
</svg>
