<svg width="30" height="30" viewBox="0 0 30 30" fill="none" xmlns="http://www.w3.org/2000/svg">
<path d="M24.2031 19.5508C24.5495 19.9714 24.5495 20.3919 24.2031 20.8125L21.2344 23.7812C20.9375 24.0534 20.6159 24.1152 20.2695 23.9668C19.9232 23.8431 19.7376 23.571 19.7129 23.1504V21.4062H17.375C17.0286 21.4062 16.7318 21.2702 16.4844 20.998L12.1055 16.0625H6.6875C6.34115 16.0625 6.05664 15.9512 5.83398 15.7285C5.61133 15.5059 5.5 15.2214 5.5 14.875C5.5 14.5286 5.61133 14.2441 5.83398 14.0215C6.05664 13.7988 6.34115 13.6875 6.6875 13.6875H12.1055L16.4844 8.75195C16.7318 8.47982 17.0286 8.34375 17.375 8.34375H19.75V6.5625C19.7747 6.16667 19.9603 5.89453 20.3066 5.74609C20.6283 5.59766 20.9499 5.65951 21.2715 5.93164L24.2402 8.90039C24.5866 9.32096 24.5866 9.74154 24.2402 10.1621L21.2715 13.1309C20.9746 13.403 20.653 13.4648 20.3066 13.3164C19.985 13.1927 19.8118 12.9206 19.7871 12.5V10.7188H17.9316L14.2207 14.875L17.8945 19.0312H19.75V17.2129C19.7747 16.8171 19.9603 16.5449 20.3066 16.3965C20.6283 16.248 20.9375 16.3099 21.2344 16.582L24.2031 19.5508Z" fill="#C8C8C8"/>
</svg>
